<svg width="1915" height="942" viewBox="0 0 1915 942" fill="none" xmlns="http://www.w3.org/2000/svg">
<path d="M368.27 240.501C388.97 265.236 413.276 296.285 401.347 369.963L368.895 543.805L374.859 683.792C376.087 733.612 399.944 756.066 442.045 756.066H547.649C581.155 756.066 594.663 730.454 608.17 698.177L688.688 499.424L696.933 689.23C697.635 731.331 719.036 756.241 757.629 756.241H877.971C912.179 756.241 926.386 735.542 941.468 698.528L1095.14 317.862C1111.81 278.392 1102.16 240.326 1060.58 240.326H983.222C954.456 240.326 935.331 250.15 923.931 277.516L820.259 532.579L810.782 305.056C809.203 256.64 786.047 240.501 759.208 240.501H680.794C649.745 240.501 631.676 252.605 622.028 276.287L517.828 532.754L508.53 299.618C507.127 255.938 492.743 240.501 457.658 240.501H389.945C388.663 240.501 368.27 240.501 368.27 240.501Z" fill="white"/>
<path d="M1207.05 756.066C1253.54 756.066 1264.94 721.158 1271.61 681.687L1337.39 320.67C1349.32 265.411 1335.81 240.15 1283.01 240.15H1220.73C1169.86 240.15 1152.5 265.061 1145.65 305.759L1077.77 687.652C1071.1 726.069 1084.95 756.066 1124.42 756.066H1207.05Z" fill="white"/>
<path d="M1671.23 686.073L1704.03 489.074C1708.59 452.937 1701.93 427.325 1682.63 411.187C1652.1 386.277 1608.95 397.153 1587.03 422.238C1572.81 437.325 1566.5 457.849 1558.96 499.424L1525.98 681.863C1519.67 717.824 1509.66 756.066 1461.95 756.066H1380.73C1330.03 756.066 1326.52 711.86 1332.31 686.073L1400.9 305.759C1407.56 270.849 1419.85 240.326 1475.98 240.326H1534.22C1579.31 240.326 1606.32 256.816 1592.11 320.67L1585.97 352.245C1617.02 288.567 1693.5 240.15 1760.69 240.15C1811.56 240.15 1834.9 249.097 1863.14 274.534C1910.15 316.634 1918.92 379.787 1908.39 429.781L1861.56 681.687C1855.07 719.754 1845.07 756.066 1799.11 756.066H1718.24C1682.98 756.066 1664.21 730.279 1671.23 686.073Z" fill="white"/>
<path fill-rule="evenodd" clip-rule="evenodd" d="M1358.08 93.1492C1358.08 144.547 1316.32 186.298 1264.93 186.298C1213.53 186.298 1171.78 144.723 1171.78 93.1492C1171.78 41.7504 1213.53 0 1264.93 0C1316.32 0 1358.08 41.7504 1358.08 93.1492Z" fill="white"/>
<path fill-rule="evenodd" clip-rule="evenodd" d="M306.248 253.168C336.596 275.271 353.612 307.724 344.315 354.035L284.32 674.882C275.549 727.157 225.203 761.54 172.928 751.717C123.634 742.243 87.3215 695.932 97.1453 640.324L131.177 454.552L109.951 464.2C70.6566 481.918 24.3452 464.2 6.80307 424.555C-10.7391 384.909 6.80307 338.423 46.0976 320.529L204.503 250.186C241.869 231.415 277.479 233.871 306.248 253.168Z" fill="white"/>
</svg>
