<svg width="18" height="18" viewBox="0 0 18 18" fill="none" xmlns="http://www.w3.org/2000/svg">
<g id="android-logo 1" clip-path="url(#clip0_1424_493)">
<g id="Group">
<g id="Group_2">
<path id="Vector" d="M2.49689 5.82812C2.18675 5.82812 1.92361 5.93628 1.70731 6.15258C1.491 6.36889 1.38281 6.62845 1.38281 6.9314V11.5828C1.38281 11.8933 1.49097 12.1563 1.70731 12.3726C1.92361 12.5889 2.18675 12.6971 2.49689 12.6971C2.8068 12.6971 3.06835 12.5889 3.28131 12.3726C3.49384 12.1563 3.6004 11.8933 3.6004 11.5828V6.9314C3.6004 6.62842 3.49224 6.36889 3.2759 6.15258C3.05956 5.93628 2.79984 5.82812 2.49689 5.82812Z" fill="#2F5FDC"/>
<path id="Vector_2" d="M11.4559 1.65491L12.2239 0.238073C12.2743 0.144273 12.2564 0.0723446 12.17 0.0217667C12.0761 -0.0218462 12.004 0.000253148 11.9536 0.0865025L11.1749 1.51466C10.4896 1.21168 9.7648 1.05992 9.00051 1.05992C8.23604 1.05992 7.51119 1.21171 6.82618 1.51466L6.04736 0.0865025C5.99675 0.000253148 5.92466 -0.0216509 5.83106 0.0217667C5.74442 0.0725724 5.72648 0.144273 5.77709 0.238073L6.54517 1.65491C5.76635 2.05208 5.14607 2.60521 4.68456 3.31551C4.22304 4.02621 3.99219 4.80284 3.99219 5.64678H13.998C13.998 4.80304 13.7671 4.02637 13.3056 3.31551C12.844 2.60521 12.2273 2.05208 11.4559 1.65491ZM7.0154 3.71571C6.93234 3.79897 6.83314 3.8404 6.71783 3.8404C6.60229 3.8404 6.5051 3.79897 6.42582 3.71571C6.34653 3.63285 6.30689 3.53403 6.30689 3.41833C6.30689 3.30302 6.34653 3.20401 6.42582 3.12095C6.5051 3.03808 6.60251 2.99665 6.71783 2.99665C6.83314 2.99665 6.93234 3.03808 7.0154 3.12095C7.09827 3.2042 7.1399 3.30302 7.1399 3.41833C7.13967 3.53384 7.09807 3.63285 7.0154 3.71571ZM11.5748 3.71571C11.4953 3.79897 11.3979 3.8404 11.2828 3.8404C11.1672 3.8404 11.068 3.79897 10.9852 3.71571C10.9021 3.63285 10.8607 3.53403 10.8607 3.41833C10.8607 3.30302 10.9021 3.20401 10.9852 3.12095C11.068 3.03808 11.1672 2.99665 11.2828 2.99665C11.3981 2.99665 11.4953 3.03808 11.5748 3.12095C11.6541 3.2042 11.6937 3.30302 11.6937 3.41833C11.6937 3.53384 11.6541 3.63285 11.5748 3.71571Z" fill="#2F5FDC"/>
<path id="Vector_3" d="M4.03125 13.2435C4.03125 13.5755 4.14656 13.8566 4.37722 14.0872C4.60808 14.3179 4.88915 14.4332 5.22097 14.4332H6.02149L6.03246 16.889C6.03246 17.1991 6.14061 17.4624 6.35692 17.6788C6.57323 17.8951 6.83299 18.0033 7.13574 18.0033C7.44568 18.0033 7.70898 17.8951 7.92532 17.6788C8.14166 17.4624 8.24982 17.1991 8.24982 16.889V14.4334H9.74255V16.889C9.74255 17.1991 9.85067 17.4624 10.067 17.6788C10.2833 17.8951 10.5464 18.0033 10.8566 18.0033C11.1665 18.0033 11.4298 17.8951 11.6462 17.6788C11.8625 17.4624 11.9706 17.1991 11.9706 16.889V14.4334H12.782C13.1064 14.4334 13.3839 14.3181 13.615 14.0874C13.8456 13.8568 13.961 13.5757 13.961 13.2437V6.03906H4.03125V13.2435Z" fill="#2F5FDC"/>
<path id="Vector_4" d="M15.5017 5.82812C15.1988 5.82812 14.9392 5.93468 14.7229 6.14721C14.5066 6.36014 14.3984 6.62168 14.3984 6.9314V11.5828C14.3984 11.8933 14.5066 12.1563 14.7229 12.3726C14.9392 12.5889 15.199 12.6971 15.5017 12.6971C15.8117 12.6971 16.075 12.5889 16.2913 12.3726C16.5077 12.1563 16.6158 11.8933 16.6158 11.5828V6.9314C16.6158 6.62165 16.5077 6.36014 16.2913 6.14721C16.075 5.93468 15.8117 5.82812 15.5017 5.82812Z" fill="#2F5FDC"/>
</g>
</g>
</g>
<defs>
<clipPath id="clip0_1424_493">
<rect width="18" height="18" fill="white"/>
</clipPath>
</defs>
</svg>
