<svg width="40" height="40" viewBox="0 0 40 40" fill="none" xmlns="http://www.w3.org/2000/svg">
<path fill-rule="evenodd" clip-rule="evenodd" d="M20.0325 5C16.2683 5 12.8392 6.24333 10.81 7.25917C10.6267 7.35083 10.4556 7.44028 10.2967 7.5275C9.98167 7.69917 9.71334 7.85917 9.50001 8L11.8083 11.3983L12.895 11.8308C17.1417 13.9733 22.8367 13.9733 27.0842 11.8308L28.3175 11.1908L30.5 8C30.0474 7.70592 29.5774 7.4396 29.0925 7.2025C27.0733 6.1975 23.7258 5 20.0333 5M14.665 8.84667C13.8478 8.69287 13.0405 8.49029 12.2475 8.24C14.1483 7.39583 16.9808 6.5 20.0333 6.5C22.1475 6.5 24.1467 6.93 25.8 7.475C23.8625 7.7475 21.795 8.21 19.825 8.77917C18.275 9.2275 16.4633 9.17917 14.665 8.84667ZM27.965 13.0667L27.76 13.17C23.0883 15.5267 16.8917 15.5267 12.22 13.17L12.0258 13.0717C5.00667 20.7725 -0.351661 34.9975 20.0325 34.9975C40.4167 34.9975 34.9283 20.5083 27.965 13.0667ZM19.1667 20C18.7246 20 18.3007 20.1756 17.9882 20.4882C17.6756 20.8007 17.5 21.2246 17.5 21.6667C17.5 22.1087 17.6756 22.5326 17.9882 22.8452C18.3007 23.1577 18.7246 23.3333 19.1667 23.3333V20ZM20.8333 18.3333V17.5H19.1667V18.3333C18.2826 18.3333 17.4348 18.6845 16.8097 19.3096C16.1845 19.9348 15.8333 20.7826 15.8333 21.6667C15.8333 22.5507 16.1845 23.3986 16.8097 24.0237C17.4348 24.6488 18.2826 25 19.1667 25V28.3333C18.4417 28.3333 17.8242 27.8708 17.5942 27.2225C17.56 27.1164 17.505 27.0183 17.4323 26.9339C17.3596 26.8494 17.2707 26.7804 17.1708 26.731C17.071 26.6815 16.9622 26.6526 16.851 26.6459C16.7398 26.6392 16.6283 26.6549 16.5233 26.692C16.4182 26.7291 16.3217 26.7869 16.2393 26.862C16.157 26.9371 16.0906 27.0279 16.044 27.1291C15.9974 27.2303 15.9715 27.3399 15.968 27.4512C15.9644 27.5626 15.9833 27.6735 16.0233 27.7775C16.2531 28.4275 16.6788 28.9904 17.2417 29.3884C17.8047 29.7864 18.4772 30.0001 19.1667 30V30.8333H20.8333V30C21.7174 30 22.5652 29.6488 23.1904 29.0237C23.8155 28.3986 24.1667 27.5507 24.1667 26.6667C24.1667 25.7826 23.8155 24.9348 23.1904 24.3096C22.5652 23.6845 21.7174 23.3333 20.8333 23.3333V20C21.5583 20 22.1758 20.4625 22.4058 21.1108C22.44 21.2169 22.495 21.3151 22.5677 21.3995C22.6404 21.4839 22.7294 21.5529 22.8292 21.6023C22.929 21.6518 23.0378 21.6807 23.149 21.6874C23.2602 21.6941 23.3717 21.6785 23.4767 21.6414C23.5818 21.6042 23.6784 21.5464 23.7607 21.4713C23.843 21.3963 23.9094 21.3054 23.9561 21.2042C24.0027 21.103 24.0285 20.9935 24.032 20.8821C24.0356 20.7707 24.0168 20.6598 23.9767 20.5558C23.7469 19.9058 23.3212 19.343 22.7583 18.9449C22.1953 18.5469 21.5228 18.3332 20.8333 18.3333ZM20.8333 25V28.3333C21.2754 28.3333 21.6993 28.1577 22.0119 27.8452C22.3244 27.5326 22.5 27.1087 22.5 26.6667C22.5 26.2246 22.3244 25.8007 22.0119 25.4882C21.6993 25.1756 21.2754 25 20.8333 25Z" fill="url(#paint0_linear_120_1661)"/>
<defs>
<linearGradient id="paint0_linear_120_1661" x1="31.4198" y1="2.31586" x2="7.29132" y2="33.6806" gradientUnits="userSpaceOnUse">
<stop stop-color="#7433FF"/>
<stop offset="0.39" stop-color="#7A2FEA"/>
<stop offset="1" stop-color="#DC1DE6"/>
</linearGradient>
</defs>
</svg>
