<svg width="27" height="29" viewBox="0 0 27 29" fill="none" xmlns="http://www.w3.org/2000/svg">
<path d="M6.97672 0.616667C6.8695 0.618892 6.76497 0.647407 6.67434 0.699157C6.58371 0.750907 6.5104 0.823941 6.46224 0.910432C6.41409 0.996922 6.39293 1.09361 6.40101 1.19013C6.4091 1.28665 6.44613 1.37936 6.50814 1.45833L8.25548 3.7375C6.57778 4.89792 5.4027 6.62178 5.08858 8.6H21.4448C21.1306 6.62178 19.9556 4.89792 18.2779 3.7375L20.0252 1.45833C20.0881 1.37821 20.1252 1.28397 20.1326 1.186C20.1399 1.08804 20.1171 0.990144 20.0668 0.90311C20.0164 0.816075 19.9404 0.743277 19.8471 0.692736C19.7539 0.642195 19.6469 0.615872 19.5381 0.616667C19.4423 0.617464 19.348 0.639313 19.2636 0.680328C19.1791 0.721342 19.107 0.78029 19.0534 0.852084L17.2922 3.15208C16.101 2.54958 14.7307 2.2 13.2667 2.2C11.8026 2.2 10.4324 2.54958 9.2411 3.15208L7.47991 0.852084C7.42461 0.777931 7.34955 0.717512 7.26162 0.676376C7.1737 0.635241 7.07573 0.614709 6.97672 0.616667ZM9.72121 4.33333C10.3736 4.33333 10.903 4.8112 10.903 5.4C10.903 5.9888 10.3736 6.46667 9.72121 6.46667C9.06885 6.46667 8.53939 5.9888 8.53939 5.4C8.53939 4.8112 9.06885 4.33333 9.72121 4.33333ZM16.8121 4.33333C17.4645 4.33333 17.9939 4.8112 17.9939 5.4C17.9939 5.9888 17.4645 6.46667 16.8121 6.46667C16.1598 6.46667 15.6303 5.9888 15.6303 5.4C15.6303 4.8112 16.1598 4.33333 16.8121 4.33333ZM1.44848 10.7333C0.796121 10.7333 0.266666 11.2112 0.266666 11.8V20.3333C0.266666 20.9221 0.796121 21.4 1.44848 21.4C2.10085 21.4 2.6303 20.9221 2.6303 20.3333V11.8C2.6303 11.2112 2.10085 10.7333 1.44848 10.7333ZM4.99394 10.7333V21.4C4.99394 22.5787 6.05167 23.5333 7.35758 23.5333V27.2667C7.35758 28.1499 8.15176 28.8667 9.1303 28.8667C10.1088 28.8667 10.903 28.1499 10.903 27.2667V23.5333H15.6303V27.2667C15.6303 28.1499 16.4245 28.8667 17.403 28.8667C18.3816 28.8667 19.1758 28.1499 19.1758 27.2667V23.5333C20.4817 23.5333 21.5394 22.5787 21.5394 21.4V10.7333H4.99394ZM25.0848 10.7333C24.4325 10.7333 23.903 11.2112 23.903 11.8V20.3333C23.903 20.9221 24.4325 21.4 25.0848 21.4C25.7372 21.4 26.2667 20.9221 26.2667 20.3333V11.8C26.2667 11.2112 25.7372 10.7333 25.0848 10.7333Z" fill="#084826"/>
</svg>
