<svg width="24" height="24" viewBox="0 0 24 24" fill="none" xmlns="http://www.w3.org/2000/svg">
<g clip-path="url(#clip0_11087_2512)">
<path d="M7.78125 0.703126V6.5116C8.4668 6.26789 9.11298 6.3664 9.65515 6.72931L12.5308 8.8841C13.0554 9.2309 13.4063 9.88734 13.4063 10.5938C13.4063 11.3004 13.0554 11.9568 12.4669 12.3488L9.71832 14.413C9.06006 14.8568 8.42798 14.9055 7.78125 14.6757C7.78125 14.896 7.78125 19.2261 7.78125 19.0781C7.78125 19.4669 8.09564 19.7813 8.48438 19.7813H14.8125V4.92188C14.8125 4.21674 15.1723 3.55078 15.7581 3.16278L19.975 0H8.48438C8.09564 0 7.78125 0.314576 7.78125 0.703126Z" fill="black"/>
<path d="M7.78125 0.703126V6.5116C8.4668 6.26789 9.11298 6.3664 9.65515 6.72931L12.5308 8.8841C13.0554 9.2309 13.4063 9.88734 13.4063 10.5938C13.4063 11.3004 13.0554 11.9568 12.4669 12.3488L9.71832 14.413C9.06006 14.8568 8.42798 14.9055 7.78125 14.6757C7.78125 14.896 7.78125 19.2261 7.78125 19.0781C7.78125 19.4669 8.09564 19.7813 8.48438 19.7813H14.8125V4.92188C14.8125 4.21674 15.1723 3.55078 15.7581 3.16278L19.975 0H8.48438C8.09564 0 7.78125 0.314576 7.78125 0.703126Z" fill="url(#paint0_linear_11087_2512)"/>
<path d="M23.25 0.703112C23.25 0.449877 23.114 0.216417 22.8935 0.0913563C22.673 -0.0335218 22.4026 -0.0302259 22.1849 0.100328L16.5599 4.31908C16.3484 4.44597 16.2188 4.67467 16.2188 4.92187V23.2969C16.2188 23.5503 16.3546 23.7838 16.5751 23.9086C16.795 24.0333 17.0656 24.0304 17.2837 23.8999L22.9087 19.6811C23.1202 19.554 23.25 19.3253 23.25 19.0781V0.703112ZM18.3294 14.1094C17.941 14.1094 17.6263 13.7946 17.6263 13.4062C17.6263 13.0179 17.941 12.7031 18.3294 12.7031C18.7178 12.7031 19.0325 13.0179 19.0325 13.4062C19.0325 13.7946 18.7178 14.1094 18.3294 14.1094Z" fill="black"/>
<path d="M23.25 0.703112C23.25 0.449877 23.114 0.216417 22.8935 0.0913563C22.673 -0.0335218 22.4026 -0.0302259 22.1849 0.100328L16.5599 4.31908C16.3484 4.44597 16.2188 4.67467 16.2188 4.92187V23.2969C16.2188 23.5503 16.3546 23.7838 16.5751 23.9086C16.795 24.0333 17.0656 24.0304 17.2837 23.8999L22.9087 19.6811C23.1202 19.554 23.25 19.3253 23.25 19.0781V0.703112ZM18.3294 14.1094C17.941 14.1094 17.6263 13.7946 17.6263 13.4062C17.6263 13.0179 17.941 12.7031 18.3294 12.7031C18.7178 12.7031 19.0325 13.0179 19.0325 13.4062C19.0325 13.7946 18.7178 14.1094 18.3294 14.1094Z" fill="url(#paint1_linear_11087_2512)"/>
<path d="M1.45313 11.9999H7.78126V12.7031C7.78126 12.9627 7.92408 13.2009 8.15278 13.3232C8.37818 13.4441 8.65632 13.4335 8.8744 13.2881L11.6869 11.1787C11.8826 11.0483 12 10.8286 12 10.5939C12 10.3589 11.8826 10.1392 11.6869 10.0088L8.8744 7.89891C8.65943 7.75554 8.38074 7.74236 8.15278 7.86394C7.92408 7.98626 7.78126 8.22448 7.78126 8.48412V9.18761H1.45313C1.06439 9.18761 0.75 9.502 0.75 9.89074V11.297C0.75 11.6855 1.06439 11.9999 1.45313 11.9999Z" fill="black"/>
<path d="M1.45313 11.9999H7.78126V12.7031C7.78126 12.9627 7.92408 13.2009 8.15278 13.3232C8.37818 13.4441 8.65632 13.4335 8.8744 13.2881L11.6869 11.1787C11.8826 11.0483 12 10.8286 12 10.5939C12 10.3589 11.8826 10.1392 11.6869 10.0088L8.8744 7.89891C8.65943 7.75554 8.38074 7.74236 8.15278 7.86394C7.92408 7.98626 7.78126 8.22448 7.78126 8.48412V9.18761H1.45313C1.06439 9.18761 0.75 9.502 0.75 9.89074V11.297C0.75 11.6855 1.06439 11.9999 1.45313 11.9999Z" fill="url(#paint2_linear_11087_2512)"/>
</g>
<defs>
<linearGradient id="paint0_linear_11087_2512" x1="13.8781" y1="0" x2="13.8781" y2="19.7813" gradientUnits="userSpaceOnUse">
<stop stop-color="#7130E9"/>
<stop offset="1" stop-color="#D21FE6"/>
</linearGradient>
<linearGradient id="paint1_linear_11087_2512" x1="19.7344" y1="0" x2="19.7344" y2="24" gradientUnits="userSpaceOnUse">
<stop stop-color="#7130E9"/>
<stop offset="1" stop-color="#D21FE6"/>
</linearGradient>
<linearGradient id="paint2_linear_11087_2512" x1="6.375" y1="7.78125" x2="6.375" y2="13.4062" gradientUnits="userSpaceOnUse">
<stop stop-color="#7130E9"/>
<stop offset="1" stop-color="#D21FE6"/>
</linearGradient>
<clipPath id="clip0_11087_2512">
<rect width="24" height="24" fill="white"/>
</clipPath>
</defs>
</svg>
