<svg width="24" height="24" viewBox="0 0 24 24" fill="none" xmlns="http://www.w3.org/2000/svg">
<g clip-path="url(#clip0_11086_2331)">
<path d="M18.7765 12.4688C15.8972 12.4688 13.5547 14.8112 13.5547 17.6906C13.5547 20.5699 15.8972 22.9125 18.7765 22.9125C21.6558 22.9125 23.9983 20.5701 23.9983 17.6906C23.9983 14.8112 21.6556 12.4688 18.7765 12.4688ZM20.2827 18.3937H19.4796V19.1968C19.4796 19.5851 19.1649 19.8999 18.7765 19.8999C18.3881 19.8999 18.0734 19.5851 18.0734 19.1968V18.3937H17.2703C16.8819 18.3937 16.5671 18.0789 16.5671 17.6906C16.5671 17.3024 16.8819 16.9874 17.2703 16.9874H18.0734V16.1843C18.0734 15.7961 18.3881 15.4812 18.7765 15.4812C19.1649 15.4812 19.4796 15.7961 19.4796 16.1843V16.9874H20.2827C20.6711 16.9874 20.9858 17.3024 20.9858 17.6906C20.9858 18.0789 20.6711 18.3937 20.2827 18.3937Z" fill="url(#paint0_linear_11086_2331)"/>
<path d="M7.4798 11.6157C10.3591 11.6157 12.7016 9.27301 12.7016 6.39368C12.7016 3.51434 10.3589 1.17188 7.4798 1.17188C4.60046 1.17188 2.25781 3.51434 2.25781 6.39368C2.25781 9.27319 4.60046 11.6157 7.4798 11.6157Z" fill="url(#paint1_linear_11086_2331)"/>
<path d="M13.6619 13.4814C13.1336 12.7081 12.4644 12.038 11.6911 11.5095C10.5456 12.454 9.07855 13.022 7.48132 13.022C5.88409 13.022 4.41705 12.454 3.27136 11.5095C1.29803 12.8579 0 15.1255 0 17.6906V20.3266C0 21.7526 1.15997 22.9126 2.58582 22.9126H12.3765C13.0056 22.9126 13.5828 22.6866 14.0316 22.3118C12.8681 21.1169 12.15 19.4861 12.15 17.6906C12.15 16.0938 12.7178 14.6269 13.6619 13.4814Z" fill="url(#paint2_linear_11086_2331)"/>
</g>
<defs>
<linearGradient id="paint0_linear_11086_2331" x1="18.7765" y1="12.4688" x2="18.7765" y2="22.9125" gradientUnits="userSpaceOnUse">
<stop stop-color="#7130E9"/>
<stop offset="1" stop-color="#D21FE6"/>
</linearGradient>
<linearGradient id="paint1_linear_11086_2331" x1="7.47971" y1="1.17187" x2="7.47971" y2="11.6157" gradientUnits="userSpaceOnUse">
<stop stop-color="#7130E9"/>
<stop offset="1" stop-color="#D21FE6"/>
</linearGradient>
<linearGradient id="paint2_linear_11086_2331" x1="7" y1="8" x2="-2.70083e-07" y2="23" gradientUnits="userSpaceOnUse">
<stop stop-color="#7130E9"/>
<stop offset="1" stop-color="#D21FE6"/>
</linearGradient>
<clipPath id="clip0_11086_2331">
<rect width="24" height="24" fill="white"/>
</clipPath>
</defs>
</svg>
