<svg width="40" height="40" viewBox="0 0 40 40" fill="none" xmlns="http://www.w3.org/2000/svg">
<path fill-rule="evenodd" clip-rule="evenodd" d="M15.9867 5.33299C15.7236 5.56909 15.4482 5.79106 15.1617 5.99799C14.665 6.33133 14.1067 6.56133 13.52 6.67799C13.265 6.72799 12.9983 6.74966 12.4667 6.79133C11.1317 6.89799 10.4633 6.95133 9.90666 7.14799C9.26998 7.37241 8.6917 7.73668 8.21436 8.21403C7.73701 8.69137 7.37274 9.26965 7.14832 9.90633C6.95166 10.463 6.89832 11.1313 6.79166 12.4663C6.77252 12.8192 6.73469 13.1708 6.67832 13.5197C6.56166 14.1063 6.33166 14.6647 5.99832 15.1613C5.85332 15.378 5.67999 15.5813 5.33332 15.9863C4.46499 17.0063 4.02999 17.5163 3.77499 18.0497C3.18666 19.283 3.18666 20.7163 3.77499 21.9497C4.02999 22.483 4.46499 22.993 5.33332 24.013C5.67999 24.418 5.85332 24.6213 5.99832 24.838C6.33166 25.3347 6.56166 25.893 6.67832 26.4797C6.72832 26.7347 6.74999 27.0013 6.79166 27.533C6.89832 28.868 6.95166 29.5363 7.14832 30.093C7.37274 30.7297 7.73701 31.308 8.21436 31.7853C8.6917 32.2626 9.26998 32.6269 9.90666 32.8513C10.4633 33.048 11.1317 33.1013 12.4667 33.208C12.9983 33.2497 13.265 33.2713 13.52 33.3213C14.1067 33.438 14.665 33.6697 15.1617 34.0013C15.3783 34.1463 15.5817 34.3197 15.9867 34.6663C17.0067 35.5347 17.5167 35.9697 18.05 36.2247C19.2833 36.813 20.7167 36.813 21.95 36.2247C22.4833 35.9697 22.9933 35.5347 24.0133 34.6663C24.4183 34.3197 24.6217 34.1463 24.8383 34.0013C25.335 33.668 25.8933 33.438 26.48 33.3213C26.735 33.2713 27.0017 33.2497 27.5333 33.208C28.8683 33.1013 29.5367 33.048 30.0933 32.8513C30.73 32.6269 31.3083 32.2626 31.7856 31.7853C32.263 31.308 32.6272 30.7297 32.8517 30.093C33.0483 29.5363 33.1017 28.868 33.2083 27.533C33.25 27.0013 33.2717 26.7347 33.3217 26.4797C33.4383 25.893 33.67 25.3347 34.0017 24.838C34.1467 24.6213 34.32 24.418 34.6667 24.013C35.535 22.993 35.97 22.483 36.225 21.9497C36.8133 20.7163 36.8133 19.283 36.225 18.0497C35.97 17.5163 35.535 17.0063 34.6667 15.9863C34.4306 15.7233 34.2086 15.4479 34.0017 15.1613C33.6681 14.6647 33.437 14.1066 33.3217 13.5197C33.2653 13.1708 33.2275 12.8192 33.2083 12.4663C33.1017 11.1313 33.0483 10.463 32.8517 9.90633C32.6272 9.26965 32.263 8.69137 31.7856 8.21403C31.3083 7.73668 30.73 7.37241 30.0933 7.14799C29.5367 6.95133 28.8683 6.89799 27.5333 6.79133C27.1805 6.77219 26.8289 6.73436 26.48 6.67799C25.893 6.5627 25.3349 6.33152 24.8383 5.99799C24.5518 5.79106 24.2764 5.56909 24.0133 5.33299C22.9933 4.46466 22.4833 4.02966 21.95 3.77466C21.3412 3.48328 20.6749 3.33203 20 3.33203C19.3251 3.33203 18.6588 3.48328 18.05 3.77466C17.5167 4.02966 17.0067 4.46466 15.9867 5.33299ZM26.385 13.6163C26.6388 13.8707 26.7814 14.2153 26.7814 14.5747C26.7814 14.934 26.6388 15.2787 26.385 15.533L15.5333 26.3863C15.4097 26.5217 15.2599 26.6305 15.093 26.7064C14.9261 26.7822 14.7456 26.8234 14.5623 26.8276C14.3791 26.8317 14.1969 26.7986 14.0267 26.7304C13.8566 26.6622 13.7021 26.5602 13.5724 26.4305C13.4428 26.3009 13.3408 26.1464 13.2726 25.9762C13.2043 25.8061 13.1713 25.6239 13.1754 25.4407C13.1796 25.2574 13.2208 25.0769 13.2966 24.91C13.3725 24.7431 13.4813 24.5933 13.6167 24.4697L24.4667 13.618C24.721 13.3642 25.0657 13.2216 25.425 13.2216C25.7843 13.2216 26.129 13.3642 26.3833 13.618M26.3283 24.523C26.3283 25.0026 26.1378 25.4626 25.7987 25.8017C25.4595 26.1408 24.9996 26.3313 24.52 26.3313C24.0404 26.3313 23.5804 26.1408 23.2413 25.8017C22.9022 25.4626 22.7117 25.0026 22.7117 24.523C22.7117 24.0434 22.9022 23.5834 23.2413 23.2443C23.5804 22.9052 24.0404 22.7147 24.52 22.7147C24.9996 22.7147 25.4595 22.9052 25.7987 23.2443C26.1378 23.5834 26.3283 24.0434 26.3283 24.523ZM15.4783 17.2897C15.9579 17.2897 16.4179 17.0991 16.757 16.76C17.0961 16.4209 17.2867 15.9609 17.2867 15.4813C17.2867 15.0017 17.0961 14.5418 16.757 14.2026C16.4179 13.8635 15.9579 13.673 15.4783 13.673C14.9987 13.673 14.5388 13.8635 14.1996 14.2026C13.8605 14.5418 13.67 15.0017 13.67 15.4813C13.67 15.9609 13.8605 16.4209 14.1996 16.76C14.5388 17.0991 14.9987 17.2897 15.4783 17.2897Z" fill="url(#paint0_linear_120_1666)"/>
<defs>
<linearGradient id="paint0_linear_120_1666" x1="33.333" y1="0.349354" x2="6.88961" y2="36.4699" gradientUnits="userSpaceOnUse">
<stop stop-color="#7433FF"/>
<stop offset="0.39" stop-color="#7A2FEA"/>
<stop offset="1" stop-color="#DC1DE6"/>
</linearGradient>
</defs>
</svg>
