<svg width="18" height="18" viewBox="0 0 18 18" fill="none" xmlns="http://www.w3.org/2000/svg">
<g id="apple 1">
<g id="Group">
<g id="Group_2">
<path id="Vector" d="M12.3755 0C11.4158 0.0663746 10.2942 0.680621 9.64061 1.48049C9.04436 2.20611 8.55386 3.28386 8.74511 4.33122C9.79361 4.36385 10.877 3.73498 11.5047 2.92161C12.092 2.16449 12.5363 1.09349 12.3755 0Z" fill="#2F5FDC"/>
</g>
</g>
<g id="Group_3">
<g id="Group_4">
<path id="Vector_2" d="M16.1665 6.0368C15.2451 4.88143 13.9503 4.21094 12.7274 4.21094C11.113 4.21094 10.4301 4.98381 9.30853 4.98381C8.15204 4.98381 7.27342 4.21319 5.8773 4.21319C4.50593 4.21319 3.04569 5.05131 2.11982 6.48455C0.818206 8.50279 1.04095 12.2974 3.15032 15.5295C3.90519 16.686 4.91318 17.9865 6.23167 17.9977C7.40504 18.009 7.73579 17.2451 9.32541 17.2372C10.915 17.2282 11.2165 18.0079 12.3876 17.9955C13.7073 17.9854 14.7704 16.5442 15.5252 15.3877C16.0664 14.5586 16.2677 14.1413 16.6874 13.2053C13.6353 12.0431 13.1459 7.70292 16.1665 6.0368Z" fill="#2F5FDC"/>
</g>
</g>
</g>
</svg>
