<svg width="24" height="25" viewBox="0 0 24 25" fill="none" xmlns="http://www.w3.org/2000/svg">
<g clip-path="url(#clip0_6219_3023)">
<path d="M22.7113 9.16653C23.4702 9.4939 24.0004 10.2469 24.0004 11.125C24.0004 12.0274 23.4394 12.7949 22.6476 13.1077C23.1113 13.4995 23.4108 14.0767 23.4108 14.7307C23.4108 15.9107 22.455 16.8665 21.2758 16.8665H16.4096C16.8769 17.7864 17.2827 19.0023 17.1442 20.4568C17.0146 21.8257 15.8603 24.2457 14.0805 24.3885C12.7094 24.4984 12.4443 23.9842 12.4443 22.6087C12.4443 22.6087 12.4597 21.2764 12.4597 20.4224C12.4597 18.8923 11.9507 18.1138 10.1518 16.824C7.7788 15.1226 7.36719 14.2444 7.36719 14.2444V4.0879C7.36719 2.81201 8.40139 1.77786 9.67723 1.77786H14.1084H19.5166C20.6973 1.77786 22.2925 2.34767 22.2925 3.91287C22.2925 4.49881 22.0566 5.02911 21.6743 5.41508C22.707 5.56451 23.5032 6.44487 23.5032 7.51934C23.5031 8.18651 23.1911 8.77465 22.7113 9.16653Z" fill="white"/>
<path d="M4.53295 14.9915H1.1543C0.517078 14.9915 0 14.4751 0 13.8365V1.75147C0 1.11425 0.517078 0.597174 1.1543 0.597174H4.53295C5.17088 0.597174 5.688 1.11425 5.688 1.75147V13.8365C5.688 14.4751 5.17092 14.9915 4.53295 14.9915ZM3.08934 2.43046C2.499 2.43046 2.01998 2.90947 2.01998 3.49981C2.01998 4.09016 2.499 4.56917 3.08934 4.56917C3.68114 4.56917 4.1587 4.09016 4.1587 3.49981C4.1587 2.90947 3.68114 2.43046 3.08934 2.43046Z" fill="white"/>
</g>
<defs>
<clipPath id="clip0_6219_3023">
<rect width="24" height="24" fill="white" transform="matrix(1 0 0 -1 0 24.5)"/>
</clipPath>
</defs>
</svg>
