<svg width="49" height="44" viewBox="0 0 49 44" fill="none" xmlns="http://www.w3.org/2000/svg">
<g clip-path="url(#clip0_1155_268)">
<path d="M25.8194 14.3234C24.9652 12.6597 23.6876 10.7068 22.6569 10.3633C22.5071 10.3138 22.3505 10.2888 22.1928 10.2891C21.7959 10.2899 21.4137 10.4394 21.1215 10.708C20.9532 10.8639 20.6866 11.1879 20.7912 11.6067C21.1589 13.0761 23.9357 13.9419 25.8194 14.3234Z" fill="white"/>
<path d="M33.2079 11.6069C33.3126 11.1881 33.0459 10.8642 32.8776 10.7083C32.5856 10.4396 32.2035 10.2901 31.8067 10.2891C31.6489 10.2887 31.492 10.3138 31.3422 10.3633C30.3119 10.7071 29.0342 12.6597 28.1797 14.3234C30.0638 13.9419 32.8406 13.0761 33.2079 11.6069Z" fill="white"/>
<path d="M40.6119 7.01321C37.9197 4.32105 34.4897 2.48766 30.7556 1.74489C27.0214 1.00213 23.1509 1.38334 19.6334 2.84033C16.1159 4.29732 13.1095 6.76464 10.9943 9.93029C8.87907 13.0959 7.75008 16.8177 7.75008 20.625C7.74146 23.6079 8.43338 26.5511 9.77013 29.2177C10.994 31.6563 12.7176 33.8099 14.8288 35.5384C17.3623 37.3427 18.7812 38.0293 21.3117 39.0191C25.5001 40 29.8363 40.1472 33.8549 38.6154C37.8735 37.0836 41.2636 34.2504 43.4844 30.5675C45.7052 26.8847 46.629 22.5642 46.1084 18.2952C45.5878 14.0262 43.6527 10.0544 40.6119 7.01321ZM20.1881 9.69927C20.5725 9.3455 21.0438 9.09988 21.5541 8.98738C22.0643 8.87487 22.5952 8.89951 23.0928 9.05878C24.7049 9.59606 26.1865 12.0344 27.0004 13.6121C27.8142 12.0344 29.2959 9.59606 30.908 9.05878C31.4056 8.8995 31.9365 8.87486 32.4467 8.98736C32.9569 9.09986 33.4282 9.3455 33.8127 9.69927C34.4686 10.3068 34.7416 11.1445 34.5426 11.9402C34.1957 13.3282 32.7976 14.4179 30.3874 15.179C29.3068 15.5137 28.199 15.753 27.0766 15.8942C27.0523 15.8969 27.0278 15.8983 27.0033 15.8983H27.0008H26.9982C26.9737 15.8983 26.9492 15.8969 26.9249 15.8942C25.8025 15.753 24.6947 15.5137 23.6141 15.179C21.2039 14.4179 19.8058 13.3282 19.4589 11.9402C19.2592 11.1445 19.5321 10.3068 20.1881 9.69927ZM16.6876 20.711V16.586C16.6876 16.4036 16.76 16.2288 16.8889 16.0998C17.0179 15.9709 17.1927 15.8985 17.3751 15.8985H26.3126V21.3985H17.3751C17.1927 21.3985 17.0179 21.326 16.8889 21.1971C16.76 21.0682 16.6876 20.8933 16.6876 20.711ZM18.7501 31.7969C18.5677 31.7969 18.3929 31.7245 18.2639 31.5955C18.135 31.4666 18.0626 31.2917 18.0626 31.1094V22.7735H26.3126V31.7969H18.7501ZM35.9376 31.1094C35.9376 31.2917 35.8651 31.4666 35.7362 31.5955C35.6073 31.7245 35.4324 31.7969 35.2501 31.7969H27.6876V22.7735H35.9376V31.1094ZM37.3126 20.711C37.3126 20.8933 37.2401 21.0682 37.1112 21.1971C36.9823 21.326 36.8074 21.3985 36.6251 21.3985H27.6876V15.8985H36.6251C36.8074 15.8985 36.9823 15.9709 37.1112 16.0998C37.2401 16.2288 37.3126 16.4036 37.3126 16.586V20.711Z" fill="white"/>
<path d="M13.6916 6.33355L5.71871 8.09669L5.49322 8.14655L5.30906 8.00721L1.89793 5.42622L13.6916 6.33355ZM13.6916 6.33355L7.23465 8.99132L7.0485 9.06794L6.96737 9.25217L5.26432 13.1193L5.04807 13.6103L5.55313 13.7915C5.82926 13.8905 6.07796 13.91 6.31671 13.8661C6.52649 13.8275 6.7079 13.7417 6.83781 13.6802C6.8423 13.6781 6.84674 13.676 6.85111 13.674L8.99016 12.7143L11.6217 16.6326L11.639 16.6584L11.6594 16.6818C11.989 17.061 12.4191 17.3565 12.9301 17.3134C13.4377 17.2707 13.8236 16.9103 14.1065 16.4664L14.1066 16.4664L14.1103 16.4604L20.9912 5.31954C21.3411 4.75461 21.4633 4.15887 21.2183 3.66095C20.9689 3.15414 20.4374 2.94472 19.9178 2.95212L19.9178 2.9521L19.9132 2.95221L2.80546 3.35287L2.80546 3.35286L2.80281 3.35294C2.47484 3.36236 2.18103 3.41044 1.93827 3.50698C1.6988 3.60222 1.46074 3.76549 1.3374 4.03305C1.20727 4.31535 1.25374 4.60547 1.37284 4.83906C1.48729 5.06353 1.67689 5.25923 1.89757 5.42596L13.6916 6.33355Z" fill="#33A3F5" stroke="white"/>
<path d="M9.49452 19.0373C8.28815 29.7079 16.8109 38.4266 26.5208 38.6393C36.2306 38.852 44.2749 31.1323 44.4882 21.3968C44.7015 11.6612 37.003 3.59659 27.2932 3.38387" stroke="#33A3F5" stroke-dasharray="2 2"/>
</g>
<defs>
<clipPath id="clip0_1155_268">
<rect width="49" height="44" fill="white"/>
</clipPath>
</defs>
</svg>
