<svg width="24" height="24" viewBox="0 0 24 24" fill="none" xmlns="http://www.w3.org/2000/svg">
<g clip-path="url(#clip0_6219_3042)">
<path d="M22.7113 15.3335C23.4702 15.0061 24.0004 14.2531 24.0004 13.375C24.0004 12.4726 23.4394 11.7051 22.6476 11.3923C23.1113 11.0005 23.4108 10.4233 23.4108 9.76927C23.4108 8.58933 22.455 7.6335 21.2758 7.6335H16.4096C16.8769 6.71358 17.2827 5.49774 17.1442 4.04316C17.0146 2.67427 15.8603 0.254347 14.0805 0.111519C12.7094 0.00164416 12.4443 0.515816 12.4443 1.89132C12.4443 1.89132 12.4597 3.2236 12.4597 4.07761C12.4597 5.60766 11.9507 6.38621 10.1518 7.67602C7.7788 9.37744 7.36719 10.2556 7.36719 10.2556V20.4121C7.36719 21.688 8.40139 22.7221 9.67723 22.7221H14.1084H19.5166C20.6973 22.7221 22.2925 22.1523 22.2925 20.5871C22.2925 20.0012 22.0566 19.4709 21.6743 19.0849C22.707 18.9355 23.5032 18.0551 23.5032 16.9807C23.5031 16.3135 23.1911 15.7253 22.7113 15.3335Z" fill="white"/>
<path d="M4.53295 9.50854H1.1543C0.517078 9.50854 0 10.0249 0 10.6635V22.7485C0 23.3857 0.517078 23.9028 1.1543 23.9028H4.53295C5.17088 23.9028 5.688 23.3857 5.688 22.7485V10.6635C5.688 10.0249 5.17092 9.50854 4.53295 9.50854ZM3.08934 22.0695C2.499 22.0695 2.01998 21.5905 2.01998 21.0002C2.01998 20.4098 2.499 19.9308 3.08934 19.9308C3.68114 19.9308 4.1587 20.4098 4.1587 21.0002C4.1587 21.5905 3.68114 22.0695 3.08934 22.0695Z" fill="white"/>
</g>
<defs>
<clipPath id="clip0_6219_3042">
<rect width="24" height="24" fill="white"/>
</clipPath>
</defs>
</svg>
