<svg width="65" height="26" viewBox="0 0 65 26" fill="none" xmlns="http://www.w3.org/2000/svg">
<g id="Logo">
<g id="Vector">
<path d="M11.7926 11.7316C12.1218 10.1858 11.5275 9.07791 10.4668 8.35418C9.49761 7.7198 8.27239 7.63045 6.97403 8.2559L1.5794 10.6326C0.226173 11.2312 -0.359007 12.777 0.226172 14.0726C0.838782 15.3949 2.39317 15.9668 3.74639 15.3949L4.45958 15.0733L3.29837 21.2384C2.9692 23.0969 4.20356 24.6158 5.88596 24.9375C7.66893 25.2591 9.40618 24.1154 9.69877 22.3731L11.7926 11.7316Z" fill="white"/>
<path d="M60.8654 7.8985C57.8938 7.47856 54.8948 9.1762 53.7518 11.5708L53.9438 10.5254C54.4284 8.40779 53.5232 7.84489 51.978 7.84489H49.9756C48.0738 7.84489 47.644 8.85454 47.4154 10.025L45.0838 22.659C44.8918 23.5168 45.0198 25 46.7297 25H49.5093C51.1551 25 51.4751 23.7402 51.7037 22.534L52.8283 16.4671C53.0935 15.0822 53.3129 14.4121 53.7975 13.9028C54.5382 13.0808 56.0285 12.7055 57.0617 13.5275C57.6744 14.0279 57.9029 14.8856 57.7384 16.0919L56.6137 22.659C56.3668 24.1154 56.9977 25 58.2321 25H61.0117C62.5935 25 62.9135 23.8027 63.1421 22.534L64.7697 14.3049C65.5286 11.3385 64.4588 8.40779 60.8654 7.8985Z" fill="white"/>
<path d="M43.0449 6.20086C44.8123 6.20086 46.2451 4.81275 46.2451 3.10043C46.2451 1.38811 44.8123 0 43.0449 0C41.2774 0 39.8447 1.38811 39.8447 3.10043C39.8447 4.81275 41.2774 6.20086 43.0449 6.20086Z" fill="white"/>
<path d="M43.246 22.5161C43.0174 23.8385 42.6334 24.9821 41.0516 24.9821H38.2446C36.8913 24.9821 36.3976 23.9993 36.6627 22.7037L38.9669 10.0071C39.1955 8.64904 39.8081 7.82702 41.5271 7.82702H43.6575C45.4679 7.82702 45.9159 8.68478 45.5319 10.5075L43.246 22.5161Z" fill="white"/>
<path d="M12.3595 7.82702C13.0727 8.64904 13.9139 9.65868 13.4841 12.1247L12.3869 17.9146L12.5789 22.5608C12.6155 24.2405 13.4567 24.9643 14.874 24.9643H18.4947C19.6194 24.9643 20.1131 24.1065 20.5612 23.0432L23.3042 16.4403L23.5968 22.7573C23.6334 24.1422 24.3374 25 25.6632 25H29.7686C30.9298 25 31.4144 24.3031 31.9356 23.079L37.2022 10.445C37.7783 9.14939 37.4308 7.85382 36.0044 7.85382H33.3803C32.4111 7.85382 31.7344 8.17548 31.3413 9.08685L27.7845 17.5393L27.4553 9.98928C27.3913 8.38099 26.6141 7.84489 25.6723 7.84489H22.9933C21.9235 7.84489 21.3109 8.2559 20.9909 9.04217L17.4341 17.5751L17.1049 9.80164C17.0684 8.34525 16.5563 7.84489 15.3586 7.84489H12.3595V7.82702Z" fill="white"/>
</g>
<g id="Vector_2">
<path d="M11.7926 11.7316C12.1218 10.1858 11.5275 9.07791 10.4668 8.35418C9.49761 7.7198 8.27239 7.63045 6.97403 8.2559L1.5794 10.6326C0.226173 11.2312 -0.359007 12.777 0.226172 14.0726C0.838782 15.3949 2.39317 15.9668 3.74639 15.3949L4.45958 15.0733L3.29837 21.2384C2.9692 23.0969 4.20356 24.6158 5.88596 24.9375C7.66893 25.2591 9.40618 24.1154 9.69877 22.3731L11.7926 11.7316Z" fill="#4487DC"/>
<path d="M43.0449 6.20086C44.8123 6.20086 46.2451 4.81275 46.2451 3.10043C46.2451 1.38811 44.8123 0 43.0449 0C41.2774 0 39.8447 1.38811 39.8447 3.10043C39.8447 4.81275 41.2774 6.20086 43.0449 6.20086Z" fill="#4487DC"/>
</g>
</g>
</svg>
