<svg width="40" height="40" viewBox="0 0 40 40" fill="none" xmlns="http://www.w3.org/2000/svg">
<path d="M28.5333 16.4667C27.5962 15.5296 26.3253 15.0031 25 15.0031C23.6747 15.0031 22.4038 15.5296 21.4667 16.4667C20.5296 17.4038 20.0031 18.6747 20.0031 20C20.0031 21.3253 20.5296 22.5962 21.4667 23.5333C21.9307 23.9973 22.4815 24.3654 23.0878 24.6165C23.694 24.8676 24.3438 24.9969 25 24.9969C25.6562 24.9969 26.306 24.8676 26.9122 24.6165C27.5185 24.3654 28.0693 23.9973 28.5333 23.5333C28.9973 23.0693 29.3654 22.5185 29.6165 21.9122C29.8676 21.306 29.9969 20.6562 29.9969 20C29.9969 19.3438 29.8676 18.694 29.6165 18.0878C29.3654 17.4815 28.9973 16.9307 28.5333 16.4667ZM11.6667 10V30H38.3333V10H11.6667ZM35 23.3333C34.1167 23.3333 33.2667 23.6833 32.65 24.3167C32.0167 24.9333 31.6667 25.7833 31.6667 26.6667H18.3333C18.3333 25.7833 17.9833 24.9333 17.35 24.3167C16.7333 23.6833 15.8833 23.3333 15 23.3333V16.6667C15.8833 16.6667 16.7333 16.3167 17.35 15.6833C17.9833 15.0667 18.3333 14.2167 18.3333 13.3333H31.6667C31.6667 14.2167 32.0167 15.0667 32.65 15.6833C33.2667 16.3167 34.1167 16.6667 35 16.6667V23.3333ZM8.33333 13.3333H5C4.08333 13.3333 3.33333 12.5833 3.33333 11.6667C3.33333 10.75 4.08333 10 5 10H8.33333V13.3333ZM8.33333 21.6667H3.33333C2.41667 21.6667 1.66667 20.9167 1.66667 20C1.66667 19.0833 2.41667 18.3333 3.33333 18.3333H8.33333V21.6667ZM8.33333 30H1.66667C0.746667 30 0 29.25 0 28.3333C0 27.4167 0.746667 26.6667 1.66667 26.6667H8.33333V30Z" fill="url(#paint0_linear_120_1664)"/>
<defs>
<linearGradient id="paint0_linear_120_1664" x1="34.5" y1="8.21042" x2="23.4048" y2="37.2598" gradientUnits="userSpaceOnUse">
<stop stop-color="#7433FF"/>
<stop offset="0.39" stop-color="#7A2FEA"/>
<stop offset="1" stop-color="#DC1DE6"/>
</linearGradient>
</defs>
</svg>
