<svg width="40" height="40" viewBox="0 0 40 40" fill="none" xmlns="http://www.w3.org/2000/svg">
<path fill-rule="evenodd" clip-rule="evenodd" d="M33.3333 21.6663V29.9997C33.3333 31.3258 32.8065 32.5975 31.8689 33.5352C30.9312 34.4729 29.6594 34.9997 28.3333 34.9997H21.6667V21.6663H33.3333ZM18.3333 21.6663V34.9997H11.6667C10.3406 34.9997 9.06881 34.4729 8.13113 33.5352C7.19345 32.5975 6.66667 31.3258 6.66667 29.9997V21.6663H18.3333ZM15 3.33301C15.9458 3.33296 16.8808 3.53415 17.7429 3.92323C18.6049 4.31231 19.3743 4.88037 20 5.58967C20.6256 4.88037 21.3951 4.31231 22.2571 3.92323C23.1192 3.53415 24.0542 3.33296 25 3.33301H25.8333C26.4964 3.33301 27.1323 3.5964 27.6011 4.06524C28.0699 4.53408 28.3333 5.16997 28.3333 5.83301V6.66634C28.3333 7.88134 28.0083 9.01967 27.4417 9.99967H31.6667C32.5507 9.99967 33.3986 10.3509 34.0237 10.976C34.6488 11.6011 35 12.449 35 13.333V16.6663C35 17.273 34.8383 17.843 34.5533 18.333H21.6667V13.333C21.6667 12.891 21.4911 12.4671 21.1785 12.1545C20.8659 11.8419 20.442 11.6663 20 11.6663C19.558 11.6663 19.134 11.8419 18.8215 12.1545C18.5089 12.4671 18.3333 12.891 18.3333 13.333V18.333H5.44667C5.15408 17.8263 5.00003 17.2515 5 16.6663V13.333C5 12.449 5.35119 11.6011 5.97631 10.976C6.60143 10.3509 7.44928 9.99967 8.33333 9.99967H12.5583C11.9737 8.98607 11.6662 7.83645 11.6667 6.66634V5.83301C11.6667 5.16997 11.9301 4.53408 12.3989 4.06524C12.8677 3.5964 13.5036 3.33301 14.1667 3.33301H15ZM15 6.66634C15 7.5504 15.3512 8.39824 15.9763 9.02336C16.6014 9.64849 17.4493 9.99967 18.3333 9.99967C18.3333 9.11562 17.9821 8.26777 17.357 7.64265C16.7319 7.01753 15.8841 6.66634 15 6.66634ZM25 6.66634C24.1159 6.66634 23.2681 7.01753 22.643 7.64265C22.0179 8.26777 21.6667 9.11562 21.6667 9.99967C22.5507 9.99967 23.3986 9.64849 24.0237 9.02336C24.6488 8.39824 25 7.5504 25 6.66634Z" fill="url(#paint0_linear_120_1656)"/>
<defs>
<linearGradient id="paint0_linear_120_1656" x1="32" y1="0.499511" x2="6.5" y2="33.4995" gradientUnits="userSpaceOnUse">
<stop stop-color="#7433FF"/>
<stop offset="0.39" stop-color="#7A2FEA"/>
<stop offset="1" stop-color="#DC1DE6"/>
</linearGradient>
</defs>
</svg>
