<svg width="40" height="40" viewBox="0 0 40 40" fill="none" xmlns="http://www.w3.org/2000/svg">
<path d="M20.9883 38.7631L20.97 38.7664L20.8516 38.8247L20.8183 38.8314L20.795 38.8247L20.6766 38.7664C20.6589 38.7608 20.6455 38.7636 20.6366 38.7747L20.63 38.7914L20.6016 39.5047L20.61 39.5381L20.6266 39.5597L20.8 39.6831L20.825 39.6897L20.845 39.6831L21.0183 39.5597L21.0383 39.5331L21.045 39.5047L21.0166 38.7931C21.0122 38.7753 21.0028 38.7653 20.9883 38.7631ZM21.43 38.5747L21.4083 38.5781L21.1 38.7331L21.0833 38.7497L21.0783 38.7681L21.1083 39.4847L21.1166 39.5047L21.13 39.5164L21.465 39.6714C21.4861 39.677 21.5022 39.6725 21.5133 39.6581L21.52 39.6347L21.4633 38.6114C21.4578 38.5914 21.4466 38.5792 21.43 38.5747ZM20.2383 38.5781C20.231 38.5736 20.2222 38.5722 20.2138 38.574C20.2054 38.5759 20.1981 38.5809 20.1933 38.5881L20.1833 38.6114L20.1266 39.6347C20.1278 39.6547 20.1372 39.6681 20.155 39.6747L20.18 39.6714L20.515 39.5164L20.5316 39.5031L20.5383 39.4847L20.5666 38.7681L20.5616 38.7481L20.545 38.7314L20.2383 38.5781Z" fill="black"/>
<path d="M20.9883 38.7631L20.97 38.7664L20.8516 38.8247L20.8183 38.8314L20.795 38.8247L20.6766 38.7664C20.6589 38.7608 20.6455 38.7636 20.6366 38.7747L20.63 38.7914L20.6016 39.5047L20.61 39.5381L20.6266 39.5597L20.8 39.6831L20.825 39.6897L20.845 39.6831L21.0183 39.5597L21.0383 39.5331L21.045 39.5047L21.0166 38.7931C21.0122 38.7753 21.0028 38.7653 20.9883 38.7631ZM21.43 38.5747L21.4083 38.5781L21.1 38.7331L21.0833 38.7497L21.0783 38.7681L21.1083 39.4847L21.1166 39.5047L21.13 39.5164L21.465 39.6714C21.4861 39.677 21.5022 39.6725 21.5133 39.6581L21.52 39.6347L21.4633 38.6114C21.4578 38.5914 21.4466 38.5792 21.43 38.5747ZM20.2383 38.5781C20.231 38.5736 20.2222 38.5722 20.2138 38.574C20.2054 38.5759 20.1981 38.5809 20.1933 38.5881L20.1833 38.6114L20.1266 39.6347C20.1278 39.6547 20.1372 39.6681 20.155 39.6747L20.18 39.6714L20.515 39.5164L20.5316 39.5031L20.5383 39.4847L20.5666 38.7681L20.5616 38.7481L20.545 38.7314L20.2383 38.5781Z" fill="url(#paint0_linear_120_1668)"/>
<path d="M21.645 9.56669C22.2854 9.20344 22.7875 8.63839 23.073 7.95974C23.3584 7.28108 23.4112 6.52701 23.223 5.81523C23.0348 5.10345 22.6162 4.474 22.0326 4.02513C21.449 3.57626 20.7332 3.33324 19.997 3.33399C19.2607 3.33473 18.5455 3.57921 17.9628 4.02926C17.3801 4.47931 16.9628 5.10961 16.7761 5.82178C16.5893 6.53394 16.6436 7.2879 16.9304 7.96597C17.2173 8.64404 17.7205 9.20807 18.3616 9.57002L18.345 9.60002C17.2533 11.8784 15.7366 15.1417 13.395 16.3667C11.4716 17.3717 8.71165 16.8667 6.66165 16.49C6.62876 16.0239 6.46588 15.5763 6.19149 15.198C5.9171 14.8197 5.54218 14.526 5.10927 14.35C4.67637 14.174 4.2028 14.1229 3.74232 14.2024C3.28183 14.282 2.85285 14.489 2.50406 14.8C2.15527 15.111 1.90063 15.5135 1.76903 15.9619C1.63743 16.4103 1.63414 16.8866 1.75953 17.3368C1.88492 17.7869 2.13398 18.193 2.47844 18.5087C2.8229 18.8245 3.24897 19.0375 3.70832 19.1234L8.62165 31.8067C8.98602 32.747 9.6262 33.5551 10.4581 34.125C11.2901 34.6949 12.2749 34.9999 13.2833 35H26.7167C27.7251 34.9999 28.7099 34.6949 29.5418 34.125C30.3738 33.5551 31.0139 32.747 31.3783 31.8067L36.29 19.1234C36.7464 19.0384 37.1702 18.828 37.5138 18.5158C37.8574 18.2036 38.1073 17.8018 38.2355 17.3555C38.3636 16.9093 38.3649 16.4362 38.2393 15.9892C38.1137 15.5422 37.8661 15.1391 37.5243 14.8249C37.1824 14.5107 36.7599 14.2979 36.3039 14.2104C35.8479 14.1229 35.3766 14.164 34.9427 14.3293C34.5088 14.4945 34.1296 14.7774 33.8474 15.146C33.5652 15.5147 33.3912 15.9547 33.345 16.4167C31.2466 16.6884 28.5417 17.035 26.605 16.0234C24.31 14.8234 22.7717 11.785 21.645 9.56669Z" fill="black"/>
<path d="M21.645 9.56669C22.2854 9.20344 22.7875 8.63839 23.073 7.95974C23.3584 7.28108 23.4112 6.52701 23.223 5.81523C23.0348 5.10345 22.6162 4.474 22.0326 4.02513C21.449 3.57626 20.7332 3.33324 19.997 3.33399C19.2607 3.33473 18.5455 3.57921 17.9628 4.02926C17.3801 4.47931 16.9628 5.10961 16.7761 5.82178C16.5893 6.53394 16.6436 7.2879 16.9304 7.96597C17.2173 8.64404 17.7205 9.20807 18.3616 9.57002L18.345 9.60002C17.2533 11.8784 15.7366 15.1417 13.395 16.3667C11.4716 17.3717 8.71165 16.8667 6.66165 16.49C6.62876 16.0239 6.46588 15.5763 6.19149 15.198C5.9171 14.8197 5.54218 14.526 5.10927 14.35C4.67637 14.174 4.2028 14.1229 3.74232 14.2024C3.28183 14.282 2.85285 14.489 2.50406 14.8C2.15527 15.111 1.90063 15.5135 1.76903 15.9619C1.63743 16.4103 1.63414 16.8866 1.75953 17.3368C1.88492 17.7869 2.13398 18.193 2.47844 18.5087C2.8229 18.8245 3.24897 19.0375 3.70832 19.1234L8.62165 31.8067C8.98602 32.747 9.6262 33.5551 10.4581 34.125C11.2901 34.6949 12.2749 34.9999 13.2833 35H26.7167C27.7251 34.9999 28.7099 34.6949 29.5418 34.125C30.3738 33.5551 31.0139 32.747 31.3783 31.8067L36.29 19.1234C36.7464 19.0384 37.1702 18.828 37.5138 18.5158C37.8574 18.2036 38.1073 17.8018 38.2355 17.3555C38.3636 16.9093 38.3649 16.4362 38.2393 15.9892C38.1137 15.5422 37.8661 15.1391 37.5243 14.8249C37.1824 14.5107 36.7599 14.2979 36.3039 14.2104C35.8479 14.1229 35.3766 14.164 34.9427 14.3293C34.5088 14.4945 34.1296 14.7774 33.8474 15.146C33.5652 15.5147 33.3912 15.9547 33.345 16.4167C31.2466 16.6884 28.5417 17.035 26.605 16.0234C24.31 14.8234 22.7717 11.785 21.645 9.56669Z" fill="url(#paint1_linear_120_1668)"/>
<defs>
<linearGradient id="paint0_linear_120_1668" x1="21.3806" y1="38.4733" x2="20.5697" y2="39.8558" gradientUnits="userSpaceOnUse">
<stop stop-color="#7433FF"/>
<stop offset="0.39" stop-color="#7A2FEA"/>
<stop offset="1" stop-color="#DC1DE6"/>
</linearGradient>
<linearGradient id="paint1_linear_120_1668" x1="34.6661" y1="0.500543" x2="10.8604" y2="38.1528" gradientUnits="userSpaceOnUse">
<stop stop-color="#7433FF"/>
<stop offset="0.39" stop-color="#7A2FEA"/>
<stop offset="1" stop-color="#DC1DE6"/>
</linearGradient>
</defs>
</svg>
